<svg id="Layer_1" data-name="Layer 1" xmlns="http://www.w3.org/2000/svg" viewBox="0 0 1082.86 269.29"><defs><style>.cls-1,.cls-2{fill:#004563;}.cls-2{font-size:79px;font-family:Helios, Helvetica, "Helvetica Neue", Arial, sans-serif;}</style></defs><title>logo</title><path class="cls-1" d="M73.05,125.43c0-4.05-.8-6.81-4.13-7-.51,0-1.74,0-1.74-1.38,0-1.67,1.38-1.67,2-1.67,3.11,0,6.16.43,9.27.43s6.23-.43,9.42-.43h8c3.19,0,6.3.43,9.42.43s6.23-.43,9.34-.43c.58,0,2,0,2,1.67,0,1.38-1.23,1.38-1.67,1.38-3.4.22-4.2,3-4.2,7V156c0,4.06.8,6.81,4.2,7,.43,0,1.67,0,1.67,1.38,0,1.67-1.38,1.67-2,1.67-3.11,0-6.23-.43-9.34-.43s-6.23.43-9.42.43c-1.81,0-1.88-.87-1.88-1.67,0-1.3.94-1.3,1.67-1.38,3.55-.29,4.2-3.26,4.2-7V121.67c0-.72,0-2.75-1.88-2.75H86.24c-2.39,0-2.32,1-2.32,2.39V156c0,1.81-.29,6.74,4.13,7,.51,0,1.67-.07,1.67,1.38,0,.8-.07,1.67-1.88,1.67-3.19,0-6.3-.43-9.42-.43s-6.16.43-9.27.43c-.58,0-2,0-2-1.67,0-1.38,1.23-1.38,1.74-1.38,3.33-.22,4.13-3,4.13-7Z"/><path class="cls-1" d="M125.92,125.43c0-4.05-.8-6.81-4.13-7-.51,0-1.74,0-1.74-1.38,0-1.67,1.38-1.67,2-1.67,6.3,0,1.3.14,8.11.29l8.4.15c2.82.07,9.71-.15,11.59-.29,4.13-.29,4.27-1.16,4.27,2.82v4.06c0,4.2-.43,4.56-1.3,4.56-1.16,0-1.38-1.09-1.81-2l-.87-1.59c-2.32-4.2-6.66-4.49-9.27-4.49-4.92,0-4.35,2-4.35,3.48v12.17c0,1.38-.29,3.26,1.74,3.26h2.68c2.25,0,4.35-.07,5.43-3.11l.87-2.46c.29-.94.43-2.25,1.67-2.25.72,0,1.3.43,1.3,1.81,0,4.35-.72,5.5-.22,13,.14,1.74.29,3.77-1.16,3.77s-1.67-1.67-2.24-3.26l-.51-1.38c-.65-1.74-1.88-3.19-5.58-3.19h-1.09c-3.33,0-2.9,1.67-2.9,2.68V154c0,3.4.22,8.47,5.36,8.47h1.09c5.5,0,8-3.84,9.85-7.6l.94-2c.22-.51.51-1.09,1.3-1.09s1.45.36,1.45,1.74a16.42,16.42,0,0,1-.29,2.17l-.29,2.25c-.87,6.52.51,8.26-3.62,8.11l-8.11-.29c-16.15-.58-13.76.22-22.45.22-.58,0-2,0-2-1.67,0-1.38,1.23-1.38,1.74-1.38,3.33-.22,4.13-3,4.13-7Z"/><path class="cls-1" d="M188.42,143.83c0-1.23-.72-.94-1-.87-2.46.87-7.1,2.9-12.39,2.9-6.23,0-10.94-4.49-10.94-12v-8.47c0-4.13-.8-6.81-4.2-7-.43,0-1.67,0-1.67-1.38,0-.65.14-1.67,1.88-1.67,3.19,0,6.3.43,9.42.43s6-.43,9.13-.43c1.74,0,1.88,1,1.88,1.67,0,1.38-1.23,1.38-1.67,1.38-3.26.22-3.91,3.33-3.91,7v5.14c0,8.84,2.32,9.92,5.36,9.92a26.54,26.54,0,0,0,6.45-.94c.36-.07,1.67-.36,1.67-1.23V125.43c0-3.26-.29-6.73-3.62-7-.43,0-1.67,0-1.67-1.38,0-.65.14-1.67,1.88-1.67,3,0,5.94.43,8.84.43,3.11,0,6.23-.43,9.42-.43,1.74,0,1.88,1,1.88,1.67,0,1.38-1.23,1.38-1.67,1.38-3.4.22-4.2,2.9-4.2,7V156c0,4.13.8,6.81,4.2,7,.43,0,1.67,0,1.67,1.38,0,.65-.14,1.67-1.88,1.67-3.19,0-6.3-.43-9.42-.43s-6.45.43-9.71.43c-1.74,0-1.88-1-1.88-1.67,0-1.38,1.23-1.38,1.67-1.38,4.06-.22,4.49-3.48,4.49-7Z"/><path class="cls-1" d="M245.12,157.59c1.3,3.91,1.45,5.21,3.91,5.43,1.09.07,2.32,0,2.32,1.45s-1,1.59-2.46,1.59c-2.68,0-5.36-.43-8-.43-3,0-6.08.43-9.2.43-.43,0-1.88.07-1.88-1.52,0-1.38,1.16-1.52,1.74-1.52h1.09c1.67-.07,1.74-1.16,1.74-1.81A6.94,6.94,0,0,0,234,159l-2.61-8.47c-.14-.51-.58-2.1-1.88-2.1H219.41c-.72,0-1.23,0-1.74,1.81l-1.23,4.71a14.66,14.66,0,0,0-.51,3.69c0,3.62,2.82,4.2,4.2,4.34s2.24.15,2.24,1.59-.94,1.52-2.1,1.52c-2,0-4-.43-6-.43s-4.27.43-6.45.43c-1.38,0-2.1-.22-2.1-1.52,0-2.1,2.39-1.38,4-2.83s2.25-3.84,3.77-8.55l12.09-36.94a3.46,3.46,0,0,1,.87-1.59,2.44,2.44,0,0,1,1-.36,5.45,5.45,0,0,1,1.09,0c.87.07,1.3,0,1.74.43a6.71,6.71,0,0,1,.94,1.74Zm-20.28-28.32c-.15-.36-.07-.51-.29-.58a1.26,1.26,0,0,0-.29.51L220,142.74a4.92,4.92,0,0,0-.29,1.23c0,.94.65,1.09,1.23,1.09H228c1.23,0,1.45-.65,1.09-1.81Z"/><path class="cls-1" d="M281.19,115.36c1.67,0,2.68.22,3.91-2.1.65-1.3.94-1.59,1.59-1.59s1.3.36,1.09,2.82c-.22,2.1-.36,4.27-.51,6.37-.14,1.74-.29,3.4-.43,5.14-.07.87-.22,2.17-1.3,2.17a1.8,1.8,0,0,1-1.74-1.52l-.94-3c-1.45-4.63-4-5.07-5.58-5.07h-2.46c-1,0-.94.87-.94,1.38v36c0,3.48.36,5.94,3.26,6.88,1.45.43,2.61-.15,2.61,1.52s-1.37,1.67-2,1.67c-3.11,0-6.23-.43-9.34-.43s-6.23.43-9.41.43c-1.81,0-1.88-.87-1.88-1.67,0-1.45,1.16-1.38,1.67-1.38,4.42-.29,4.13-5.21,4.13-7V120c0-.87.07-1.38-1.88-1.38-3.26,0-4.85-.36-8.26,6.08-1.38,2.68-2,3.48-2.9,3.48s-1.23-.58-1.23-1.67a13.6,13.6,0,0,1,.44-2.25l2.25-10.14c.14-.65.44-2,1.59-2s1.23.72,1.3,1.3l.07.58c.07.58.07,1.3,2,1.3Z"/><path class="cls-1" d="M295.45,125.43c0-4.05-.8-6.81-4.13-7-.51,0-1.74,0-1.74-1.38,0-1.67,1.38-1.67,2-1.67,6.3,0,1.3.14,8.11.29l8.4.15c2.83.07,9.71-.15,11.59-.29,4.13-.29,4.27-1.16,4.27,2.82v4.06c0,4.2-.43,4.56-1.3,4.56-1.16,0-1.37-1.09-1.81-2l-.87-1.59c-2.32-4.2-6.66-4.49-9.27-4.49-4.92,0-4.35,2-4.35,3.48v12.17c0,1.38-.29,3.26,1.74,3.26h2.68c2.25,0,4.34-.07,5.43-3.11l.87-2.46c.29-.94.44-2.25,1.67-2.25.72,0,1.3.43,1.3,1.81,0,4.35-.72,5.5-.22,13,.14,1.74.29,3.77-1.16,3.77s-1.66-1.67-2.24-3.26l-.51-1.38c-.65-1.74-1.88-3.19-5.58-3.19h-1.09c-3.33,0-2.9,1.67-2.9,2.68V154c0,3.4.22,8.47,5.36,8.47h1.09c5.5,0,8-3.84,9.85-7.6l.94-2c.22-.51.51-1.09,1.3-1.09s1.45.36,1.45,1.74a16.47,16.47,0,0,1-.29,2.17l-.29,2.25c-.87,6.52.51,8.26-3.62,8.11l-8.11-.29c-16.15-.58-13.76.22-22.45.22-.58,0-2,0-2-1.67,0-1.38,1.23-1.38,1.74-1.38,3.33-.22,4.13-3,4.13-7Z"/><path class="cls-1" d="M362.8,125.14v-.43c0-4.49-1.81-6.08-4.2-6.3-.72-.07-1.67-.07-1.67-1.38,0-.8.07-1.67,1.88-1.67,3.19,0,6.3.43,9.42.43s6.23-.43,9.34-.43c.58,0,2,0,2,1.67,0,1.38-1.23,1.38-1.67,1.38-3.4.22-4.2,3-4.2,7V156c0,4.06.8,6.81,4.2,7,.43,0,1.67,0,1.67,1.38,0,1.67-1.37,1.67-2,1.67-3.11,0-6.23-.43-9.34-.43s-6.23.43-9.42.43c-1.81,0-1.88-.87-1.88-1.67,0-1.3.94-1.3,1.67-1.38,3.55-.29,4.2-3.26,4.2-7V130.72l-16.51,24.84V156c0,1.81-.29,6.74,4.13,7,.51,0,1.67-.07,1.67,1.38,0,.8-.07,1.67-1.88,1.67-3.19,0-6.3-.43-9.42-.43s-6.23.43-9.34.43c-.58,0-2,0-2-1.67,0-1.38,1.23-1.38,1.74-1.38,3.33-.22,4.13-3,4.13-7V125.43c0-4.05-.8-6.81-4.13-7-.51,0-1.74,0-1.74-1.38,0-1.67,1.38-1.67,2-1.67,3.12,0,6.23.43,9.34.43s6.23-.43,9.42-.43c1.81,0,1.88.87,1.88,1.67,0,1.45-1.16,1.38-1.67,1.38-4.42.29-4.13,5.21-4.13,7V150Zm-8.4-11.37c-3.62,0-8.62-2.53-8.62-7,0-3.19,3.11-6,4.64-6,1.88,0,2.1,2.54,2.25,3.55.65,4.13,2.53,4.49,3.84,4.49,2.46,0,3.69-1.38,5.58-4.2,1.16-1.74,1.88-3.77,2.9-3.77.44,0,1,.29,1,.72a3.69,3.69,0,0,1-.22,1.52C364.76,105.73,361.35,113.77,354.4,113.77Z"/><path class="cls-1" d="M118.7,76.46c-1.72-1.16-2.2-.45-3,.68l-.46.68c-1.32,2-.08,2.49,4.1,5.56a55.9,55.9,0,0,1,6.88,5.8c5.33,5.4,4.76,8.3,3.83,9.69a2.72,2.72,0,0,1-4.08.75,2.56,2.56,0,0,1-.94-3.61,1.93,1.93,0,0,1,2.11-.69c.38.08.83.17,1.09-.21C129,94,124.83,88.95,117.47,84c-3.29-2.22-4.52-3-5.63-1.5-.41.54-.63,1.13-1.37.63a.62.62,0,0,1-.23-.93c.54-.8,1.1-1.5,1.62-2.27s.92-1.49,1.42-2.24l1.54-2.28c.76-1.13,1.68-2.11,2.42-3.2.86-1.28,1.54-2.67,2.4-3.95a.8.8,0,0,1,1.22-.34c.56.38.22.88.08,1.09-.89,1.51.32,2.67,1.74,3.63L135.19,81c1.66,1.12,3,1.55,4,.25.14-.21.48-.71,1-.33a.8.8,0,0,1,.14,1.26c-.86,1.28-1.9,2.43-2.75,3.71s-1.54,2.67-2.42,4c-.5.74-.88.53-1.2.31-.59-.4-.24-.85-.1-1.06,1.1-1.89-1-3.13-1.74-3.63Z"/><path class="cls-1" d="M151.27,65.38c1.82.92,2.32,1.33,3.26.55.41-.35.81-.8,1.32-.3s.2.91-.31,1.42c-.94.93-2,1.71-3,2.64s-2,2.27-3.08,3.35a.76.76,0,0,1-1.19.12.74.74,0,0,1,.08-1.14l.38-.38a.78.78,0,0,0,0-1.24,3.41,3.41,0,0,0-.91-.66L144,67.67c-.23-.13-.93-.54-1.39-.08L139,71.08c-.25.25-.43.43,0,1.24l1.2,2.08a7.26,7.26,0,0,0,1.1,1.47,2,2,0,0,0,3,.07c.51-.4.84-.73,1.34-.22s.2.86-.21,1.26c-.71.7-1.55,1.23-2.26,1.94s-1.35,1.64-2.11,2.39c-.48.48-.81.65-1.27.2-.73-.74.36-1.31.42-2.38s-.54-2.13-1.65-4.31L130,57.64a1.71,1.71,0,0,1-.25-.86,1.2,1.2,0,0,1,.23-.48,2.65,2.65,0,0,1,.38-.38c.33-.28.46-.45.76-.45a3.3,3.3,0,0,1,.93.28Zm-17-2.91c-.18-.08-.2-.15-.3-.1a.61.61,0,0,0,.07.28l3.2,6.24a2.42,2.42,0,0,0,.33.53c.33.33.61.16.81,0l2.49-2.46c.43-.43.28-.73-.25-1Z"/><path class="cls-1" d="M154.24,49.54c.28.42.56,1,1.3.34a20.12,20.12,0,0,1,2.58-2.19c4.58-3.06,8.27-1.39,10.3,1.64,1.9,2.86,2.69,7.45-2.67,11-1.76,1.17-3.68,2-5.41,3.17-1.28.85-2.44,1.88-3.72,2.74a.8.8,0,0,1-1.26-.15c-.38-.57.13-.9.34-1,1.74-1.33.15-3.45-.23-4L147.1,48.5c-.36-.54-1.75-2.88-3.62-1.76-.21.14-.71.48-1.09-.09a.8.8,0,0,1,.35-1.22c3.78-2.52,3.74-2.19,6.13-3.83l3.41-2.36c.87-.63,1.77-1.27,2.67-1.86l.48-.32c.61-.45.7-.55,1-.75s.65-.18,1.05.42c.1.15.17.32.27.47a18.36,18.36,0,0,0,1.35,2c.31.4.6.84.91,1.24a5.27,5.27,0,0,1,.42.62.63.63,0,0,1-.16.92c-.3.2-.66.1-1.62-.56-1.41-1-2.87-2.3-5.38-.71l-1.36.86c-2.27,1.43-1.8,1.76-1.28,2.53Zm5.08,7.62c1.45,2.17,2.57,4,5.07,2.38,2.32-1.55,1.13-4.62-.64-7.27-2.4-3.6-4.86-3.16-6.23-2.25-2.05,1.37-1.64,2-1.32,2.47Z"/><path class="cls-1" d="M168.76,43.35c-2.88-7.25-.38-13.86,5.5-16.19s12.78.2,15.72,7.62c3.3,8.31-.27,14.35-5.42,16.39C178.14,53.72,171.5,50.27,168.76,43.35Zm16.55-5.42c-2.53-6.38-6.87-10.9-10.66-9.39-3.42,1.36-3.18,6.73-1.16,11.81,1.93,4.85,6.38,11.13,10.7,9.41C187.65,48.4,187.33,43,185.31,37.94Z"/><path class="cls-1" d="M194.9,26.28c-.3-1.69-.68-2.86-2.17-3.07-.74-.09-1.26.29-1.4-.52s.53-.93.81-1c1.52-.27,3-.31,4.55-.58,1-.17,1.86-.36,2.8-.6s2-.45,2.94-.62c1.37-.24,7.74-1.21,8.95,5.7.72,4.12-1.22,7.95-4.85,8.58A8.75,8.75,0,0,1,203,34a2.64,2.64,0,0,0-.92-.09c-.42.07-.35.46-.31.71l1,5.57c.3,1.73.83,3.3,2.75,3,.25,0,.8-.18.93.53.07.39.11.82-.77,1-1.59.28-3.17.34-4.76.61s-3,.74-4.47,1c-.28,0-1,.17-1.09-.64s.47-.63,1.14-1c1.33-.7,1.3-1.93,1-3.63Zm6.31,5a1.41,1.41,0,0,0,.86,1.19,2.56,2.56,0,0,0,1.24,0c2.78-.49,3-3.62,2.65-5.84-.58-3.31-2.41-5.28-4.53-4.91A1.67,1.67,0,0,0,200,23.4a7.43,7.43,0,0,0,.21,2Z"/><path class="cls-1" d="M230.43,39c.68,1.92.76,2.56,2,2.65.54,0,1.14,0,1.16.7s-.49.79-1.2.81c-1.32,0-2.65-.17-4-.15-1.5,0-3,.26-4.54.29-.22,0-.93.05-.94-.74s.56-.76.85-.76h.54c.82,0,.85-.59.84-.91a3.46,3.46,0,0,0-.2-1.11l-1.36-4.16c-.08-.25-.3-1-.95-1l-5,.08c-.36,0-.61,0-.84.91l-.57,2.33a7.26,7.26,0,0,0-.22,1.83,2,2,0,0,0,2.11,2.11c.64.06,1.11.05,1.12.77s-.45.76-1,.77c-1,0-2-.18-3-.17s-2.11.25-3.18.27c-.68,0-1-.09-1-.73,0-1,1.17-.7,1.94-1.43s1.08-1.91,1.79-4.25l5.68-18.33a1.71,1.71,0,0,1,.42-.79,1.2,1.2,0,0,1,.5-.19,2.71,2.71,0,0,1,.54,0c.43,0,.64,0,.86.2a3.29,3.29,0,0,1,.48.85ZM220.19,25.19c-.07-.18,0-.25-.15-.28a.61.61,0,0,0-.14.25l-2,6.72a2.45,2.45,0,0,0-.13.61c0,.46.33.53.62.53l3.5-.06c.61,0,.71-.33.52-.9Z"/><path class="cls-1" d="M251.26,21.1c.81.13,1.29.32,2.07-.71.42-.58.59-.7.91-.65s.6.28.3,1.46c-.27,1-.52,2.05-.76,3.06l-.63,2.47c-.11.42-.28,1-.81,1a.89.89,0,0,1-.72-.88l-.22-1.52c-.33-2.38-1.53-2.79-2.31-2.92l-1.2-.2c-.49-.08-.53.35-.57.59L244.41,40.3c-.28,1.69-.3,2.92,1,3.61.67.33,1.28.14,1.15,1s-.81.7-1.09.65c-1.52-.25-3-.72-4.52-1s-3.07-.29-4.62-.55c-.88-.15-.85-.58-.78-1,.12-.71.67-.58.92-.54,2.18.22,2.43-2.21,2.58-3.09L242,21.88c.07-.42.15-.66-.81-.82-1.59-.26-2.33-.57-4.51,2.3-.89,1.19-1.23,1.54-1.69,1.46s-.55-.38-.46-.91a6.54,6.54,0,0,1,.39-1.06l1.91-4.76c.12-.31.37-.92.93-.82a.62.62,0,0,1,.53.74v.29c0,.29-.07.64.85.79Z"/><path class="cls-1" d="M254.56,34.32c2.75-7.3,9-10.51,15-8.28s9.32,8.74,6.51,16.21c-3.15,8.37-9.85,10.43-15,8.48C254.54,48.3,251.94,41.29,254.56,34.32Zm15.89,7.13c2.42-6.43,2.25-12.68-1.57-14.12-3.45-1.3-6.88,2.84-8.8,8-1.84,4.89-2.76,12.53,1.59,14.17C265.15,50.77,268.53,46.57,270.46,41.45Z"/><path class="cls-1" d="M285.38,39.27c.92-1.45,1.42-2.57.45-3.73-.49-.56-1.13-.63-.69-1.32A.8.8,0,0,1,286.4,34c1.3.82,2.46,1.81,3.76,2.63.82.52,1.62,1,2.48,1.44s1.75,1,2.6,1.51c1.18.75,6.54,4.31,2.8,10.23-2.24,3.54-6.25,5.06-9.36,3.1a8.77,8.77,0,0,1-2.47-2.45,2.65,2.65,0,0,0-.62-.69c-.36-.23-.57.1-.71.32l-3,4.78c-.94,1.48-1.6,3,0,4.1.21.13.71.41.33,1-.21.33-.47.68-1.23.2-1.36-.86-2.58-1.88-3.94-2.74s-2.68-1.44-4-2.26a.8.8,0,0,1-.38-1.21c.44-.7.77-.15,1.49.05,1.46.37,2.26-.56,3.18-2Zm1.34,7.91a1.41,1.41,0,0,0-.16,1.46,2.55,2.55,0,0,0,.9.86c2.39,1.51,4.68-.64,5.88-2.55,1.8-2.84,1.76-5.53-.05-6.68a1.67,1.67,0,0,0-2.2.26,7.44,7.44,0,0,0-1.21,1.65Z"/><path class="cls-1" d="M314.74,61.91l.15-.15c1.55-1.59,1.46-2.78.69-3.68-.23-.28-.56-.6-.12-1.06.27-.28.6-.56,1.24.06,1.13,1.1,2.08,2.33,3.18,3.4s2.35,2,3.46,3.07a.8.8,0,0,1,.12,1.26.69.69,0,0,1-1.06-.09c-1.28-1.1-2.51-.4-3.91,1L307.95,76.57c-1.4,1.44-2.06,2.68-.93,3.93a.69.69,0,0,1,.12,1.06.8.8,0,0,1-1.27-.08c-1.1-1.07-2.05-2.3-3.16-3.37s-2.36-2-3.48-3.09c-.64-.62-.37-1-.09-1.24.45-.46.78-.14,1.06.09,1.36,1.12,2.61.29,3.91-1l8.71-8.95L298.41,67l-.15.15c-.62.64-2.42,2.28-1,3.91.18.17.61.55.12,1.06-.27.28-.6.56-1.24-.06-1.13-1.1-2.08-2.33-3.18-3.4s-2.35-2-3.46-3.07a.8.8,0,0,1-.12-1.26c.47-.49.91-.06,1.09.11,1.25,1.07,2.49.37,3.88-1.06l10.53-10.82c1.4-1.44,2.06-2.68,1-3.91-.18-.17-.62-.6-.14-1.09a.8.8,0,0,1,1.27.08c1.1,1.07,2.06,2.3,3.16,3.37s2.36,2,3.48,3.09c.64.62.37,1,.09,1.24-.5.51-.89.09-1.06-.09-1.66-1.42-3.26.42-3.88,1.06L300.33,65Z"/><path class="cls-1" d="M322.64,86.69c.75-.49.5-.8.4-1l-.2-.3c-.59-.9-2.51-.36-3.64-.12L310.58,87c-.61.11-.85.14-1.15-.18a3.1,3.1,0,0,1-.32-.48c-.39-.73-.71-1.46-1.16-2.15s-1.13-1.31-1.6-2a.72.72,0,0,1,.23-1.14.66.66,0,0,1,.91.21c.71.82,1.45.63,3.18.34l5.7-1A4.73,4.73,0,0,1,321,81.74l.09-.06c-1.11-1.88-2-5.35,1.81-7.84,5.19-3.43,8.05.12,9.35,2.09,1.78,2.68,1.36,2.44,3,5,.95,1.43,2.07,2.75,3,4.18a.8.8,0,0,1-.15,1.26.68.68,0,0,1-1-.22L337,85.9c-1.15-1.34-2.6-.56-3.91.31L320.5,94.54c-1.67,1.1-2.59,2.18-1.75,3.64a.69.69,0,0,1-.11,1.06.8.8,0,0,1-1.22-.35c-.85-1.28-1.52-2.68-2.37-4s-1.88-2.45-2.74-3.76c-.49-.75-.16-1,.17-1.23.54-.35.79,0,1,.31,1.09,1.38,2.49.84,4-.18Zm8.5-5.62c1.4-.93,1.27-1.65.71-2.49-1.6-2.42-4.19-1.34-5.92-.2s-3.68,3.38-1.77,6.27c.34.51.56.66,1.61,0Z"/><path class="cls-1" d="M223.32,255.84a105.51,105.51,0,0,1-98.14-66.27,1.9,1.9,0,1,1,3.52-1.43,102,102,0,0,0,189.25,0,1.9,1.9,0,1,1,3.52,1.42A105.51,105.51,0,0,1,223.32,255.84Z"/><text class="cls-2" transform="translate(483.79 120.86)">Лаборатория <tspan x="0" y="97">Печатей</tspan></text></svg>